<svg xmlns="http://www.w3.org/2000/svg" xmlns:xlink="http://www.w3.org/1999/xlink" width="500" zoomAndPan="magnify" viewBox="0 0 375 374.999991" height="500" preserveAspectRatio="xMidYMid meet" version="1.0"><path fill="#000000" d="M 187.5 0 C 84.132812 0 0 84.132812 0 187.5 C 0 290.867188 84.132812 375 187.5 375 C 290.867188 375 375 290.867188 375 187.5 C 375 84.132812 290.867188 0 187.5 0 Z M 187.5 31.25 C 273.980469 31.25 343.75 101.019531 343.75 187.5 C 343.75 266.054688 286.121094 330.644531 210.753906 341.859375 L 210.753906 233.0625 L 255.25 233.0625 L 262.238281 187.867188 L 210.753906 187.867188 L 210.753906 163.175781 C 210.753906 144.410156 216.917969 127.746094 234.464844 127.746094 L 262.664062 127.746094 L 262.664062 88.316406 C 257.710938 87.644531 247.230469 86.183594 227.417969 86.183594 C 186.042969 86.183594 161.804688 108.023438 161.804688 157.804688 L 161.804688 187.867188 L 119.261719 187.867188 L 119.261719 233.0625 L 161.804688 233.0625 L 161.804688 341.460938 C 87.636719 329.230469 31.25 265.203125 31.25 187.5 C 31.25 101.019531 101.019531 31.25 187.5 31.25 Z M 187.5 31.25 " fill-opacity="1" fill-rule="nonzero"/></svg>