<svg xmlns="http://www.w3.org/2000/svg" xmlns:xlink="http://www.w3.org/1999/xlink" width="500" zoomAndPan="magnify" viewBox="0 0 375 374.999991" height="500" preserveAspectRatio="xMidYMid meet" version="1.0"><path fill="#000000" d="M 187.492188 0 C 83.949219 0 0 83.941406 0 187.492188 C 0 264.261719 46.164062 330.214844 112.226562 359.214844 C 111.699219 346.121094 112.132812 330.40625 115.488281 316.160156 C 119.09375 300.941406 139.613281 214 139.613281 214 C 139.613281 214 133.625 202.027344 133.625 184.332031 C 133.625 156.550781 149.730469 135.796875 169.785156 135.796875 C 186.839844 135.796875 195.078125 148.605469 195.078125 163.945312 C 195.078125 181.089844 184.144531 206.734375 178.519531 230.484375 C 173.824219 250.371094 188.492188 266.59375 208.113281 266.59375 C 243.636719 266.59375 267.5625 220.96875 267.5625 166.914062 C 267.5625 125.820312 239.882812 95.066406 189.546875 95.066406 C 132.671875 95.066406 97.242188 137.476562 97.242188 184.851562 C 97.242188 201.1875 102.058594 212.707031 109.601562 221.625 C 113.070312 225.722656 113.550781 227.371094 112.296875 232.074219 C 111.398438 235.523438 109.332031 243.832031 108.476562 247.121094 C 107.226562 251.871094 103.378906 253.566406 99.089844 251.8125 C 72.894531 241.121094 60.691406 212.433594 60.691406 180.1875 C 60.691406 126.925781 105.609375 63.0625 194.691406 63.0625 C 266.273438 63.0625 313.386719 114.863281 313.386719 170.464844 C 313.386719 244.015625 272.496094 298.960938 212.222656 298.960938 C 191.980469 298.960938 172.941406 288.019531 166.417969 275.59375 C 166.417969 275.59375 155.535156 318.789062 153.230469 327.132812 C 149.253906 341.585938 141.472656 356.035156 134.359375 367.296875 C 151.222656 372.273438 169.035156 374.984375 187.496094 374.984375 C 291.03125 374.984375 374.976562 291.042969 374.976562 187.492188 C 374.972656 83.941406 291.027344 0 187.492188 0 Z M 187.492188 0 " fill-opacity="1" fill-rule="nonzero"/></svg>